<svg width="40" height="40" viewBox="0 0 40 40" fill="none" xmlns="http://www.w3.org/2000/svg">
<path d="M31.332 4.83203C33.5412 4.83203 35.332 6.62289 35.332 8.83203V30.832C35.332 32.9721 33.6515 34.7199 31.5381 34.8271L31.332 34.832H9.33203L9.12598 34.8271C7.08083 34.7234 5.44068 33.0832 5.33691 31.0381L5.33203 30.832V8.83203C5.33203 6.62289 7.12289 4.83203 9.33203 4.83203H31.332ZM9.33203 6.33203C7.95132 6.33203 6.83203 7.45132 6.83203 8.83203V30.832C6.83203 32.2127 7.95132 33.332 9.33203 33.332H31.332C32.7127 33.332 33.832 32.2127 33.832 30.832V8.83203C33.832 7.45132 32.7127 6.33203 31.332 6.33203H9.33203ZM27.3525 14.832C27.6594 14.832 27.9539 14.954 28.1709 15.1709C28.3879 15.3879 28.5097 15.6823 28.5098 15.9893V19.0752C28.5098 19.3821 28.3879 19.6765 28.1709 19.8936C27.9539 20.1105 27.6594 20.2324 27.3525 20.2324C27.0458 20.2323 26.7511 20.1105 26.5342 19.8936C26.3174 19.6766 26.1953 19.382 26.1953 19.0752V18.7764L21.6846 23.2871C21.5637 23.4079 21.4177 23.501 21.2568 23.5586C21.0957 23.6162 20.9232 23.6369 20.7529 23.6201C20.5827 23.6033 20.4182 23.5489 20.2715 23.4609C20.1248 23.3729 19.9993 23.2535 19.9043 23.1113L18.2178 20.582L14.2783 24.5215C14.0589 24.7258 13.7685 24.8373 13.4688 24.832C13.1691 24.8267 12.8829 24.7051 12.6709 24.4932C12.459 24.2812 12.3374 23.995 12.332 23.6953C12.3267 23.3955 12.4382 23.1051 12.6426 22.8857L17.5801 17.9482C17.701 17.8273 17.8478 17.7344 18.0088 17.6768C18.1699 17.6192 18.3424 17.5984 18.5127 17.6152C18.6828 17.6321 18.8475 17.6865 18.9941 17.7744C19.1407 17.8624 19.2664 17.9818 19.3613 18.124L21.0479 20.6533L24.5547 17.1465H24.2666C23.9598 17.1464 23.6652 17.0246 23.4482 16.8076C23.2313 16.5906 23.1094 16.2961 23.1094 15.9893C23.1094 15.6824 23.2313 15.3879 23.4482 15.1709C23.6652 14.9539 23.9598 14.8321 24.2666 14.832H27.3525Z" fill="#141A24"/>
</svg>
